<?xml version="1.0" standalone="no"?>
<!DOCTYPE svg PUBLIC "-//W3C//DTD SVG 20010904//EN"
 "http://www.w3.org/TR/2001/REC-SVG-20010904/DTD/svg10.dtd">
<svg version="1.0" xmlns="http://www.w3.org/2000/svg"
 width="700.000000pt" height="700.000000pt" viewBox="0 0 700.000000 700.000000"
 preserveAspectRatio="xMidYMid meet">
<metadata>
Created by potrace 1.14, written by Peter Selinger 2001-2017
</metadata>
<g transform="translate(0.000000,700.000000) scale(0.100000,-0.100000)"
fill="#000000" stroke="none">
<path d="M3210 5913 c-85 -11 -219 -36 -310 -57 -131 -31 -335 -108 -485 -183
-339 -168 -644 -425 -873 -735 -146 -198 -258 -410 -339 -643 -47 -136 -95
-337 -109 -460 -3 -27 -10 -70 -14 -95 -14 -77 -4 -474 14 -585 10 -55 19
-109 21 -120 1 -11 8 -42 15 -70 6 -27 13 -59 16 -69 8 -41 67 -224 96 -296
36 -93 137 -292 191 -380 204 -327 532 -644 857 -827 304 -172 544 -249 960
-312 66 -10 470 -8 525 3 17 3 48 8 70 10 177 22 451 99 620 175 141 63 343
175 420 233 305 230 504 439 674 710 159 253 267 527 325 822 34 168 41 252
41 471 0 215 -4 262 -40 460 -2 11 -9 43 -15 70 -6 28 -13 59 -16 69 -2 11
-18 65 -35 120 -175 564 -565 1059 -1074 1363 -102 60 -250 134 -318 159 -20
7 -52 20 -70 28 -30 14 -184 64 -217 71 -8 2 -35 8 -60 15 -48 13 -56 15 -141
30 -217 40 -525 49 -729 23z"/>
</g>
</svg>
